<svg width="35" height="35" viewBox="0 0 35 35" fill="none" xmlns="http://www.w3.org/2000/svg">
<path d="M30.9261 23.6349L26.1579 23.0905C25.5972 23.0247 25.0289 23.0867 24.4957 23.2721C23.9624 23.4574 23.4782 23.7612 23.0792 24.1605L19.6251 27.6147C14.2959 24.9043 9.96434 20.5728 7.25401 15.2436L10.7269 11.7707C11.5341 10.9635 11.9284 9.83717 11.7969 8.69205L11.2525 3.9614C11.1461 3.04563 10.7066 2.20098 10.0178 1.58827C9.32889 0.975562 8.43876 0.637579 7.51683 0.638675H4.2692C2.14791 0.638675 0.383301 2.40328 0.514709 4.52457C1.50965 20.5562 14.3312 33.359 30.3441 34.354C32.4654 34.4854 34.23 32.7208 34.23 30.5995V27.3519C34.2488 25.4558 32.8221 23.8602 30.9261 23.6349Z" fill="url(#paint0_linear_133_16531)"/>
<path d="M30.9261 23.6349L26.1579 23.0905C25.5972 23.0247 25.0289 23.0867 24.4957 23.2721C23.9624 23.4574 23.4782 23.7612 23.0792 24.1605L19.6251 27.6147C14.2959 24.9043 9.96434 20.5728 7.25401 15.2436L10.7269 11.7707C11.5341 10.9635 11.9284 9.83717 11.7969 8.69205L11.2525 3.9614C11.1461 3.04563 10.7066 2.20098 10.0178 1.58827C9.32889 0.975562 8.43876 0.637579 7.51683 0.638675H4.2692C2.14791 0.638675 0.383301 2.40328 0.514709 4.52457C1.50965 20.5562 14.3312 33.359 30.3441 34.354C32.4654 34.4854 34.23 32.7208 34.23 30.5995V27.3519C34.2488 25.4558 32.8221 23.8602 30.9261 23.6349Z" fill="url(#paint1_linear_133_16531)" style="mix-blend-mode:overlay"/>
<path d="M30.9261 23.6349L26.1579 23.0905C25.5972 23.0247 25.0289 23.0867 24.4957 23.2721C23.9624 23.4574 23.4782 23.7612 23.0792 24.1605L19.6251 27.6147C14.2959 24.9043 9.96434 20.5728 7.25401 15.2436L10.7269 11.7707C11.5341 10.9635 11.9284 9.83717 11.7969 8.69205L11.2525 3.9614C11.1461 3.04563 10.7066 2.20098 10.0178 1.58827C9.32889 0.975562 8.43876 0.637579 7.51683 0.638675H4.2692C2.14791 0.638675 0.383301 2.40328 0.514709 4.52457C1.50965 20.5562 14.3312 33.359 30.3441 34.354C32.4654 34.4854 34.23 32.7208 34.23 30.5995V27.3519C34.2488 25.4558 32.8221 23.8602 30.9261 23.6349Z" fill="#C1A875" style="mix-blend-mode:color"/>
<defs>
<linearGradient id="paint0_linear_133_16531" x1="-5.92031" y1="3.35807" x2="54.5366" y2="39.2681" gradientUnits="userSpaceOnUse">
<stop stop-color="#576265"/>
<stop offset="0.172016" stop-color="#9EA1A1"/>
<stop offset="0.45741" stop-color="#848B8A"/>
<stop offset="0.553567" stop-color="#576265"/>
<stop offset="0.823421" stop-color="#576265"/>
<stop offset="0.925155" stop-color="#757A7B"/>
<stop offset="1" stop-color="#576265"/>
</linearGradient>
<linearGradient id="paint1_linear_133_16531" x1="8.22156" y1="25.8565" x2="27.8176" y2="4.08917" gradientUnits="userSpaceOnUse">
<stop stop-color="white" stop-opacity="0"/>
<stop offset="1" stop-color="white"/>
</linearGradient>
</defs>
</svg>
