<svg width="34" height="34" viewBox="0 0 34 34" fill="none" xmlns="http://www.w3.org/2000/svg">
<path d="M24.3122 0H9.02374C6.65924 0.00252933 4.39231 0.942942 2.72036 2.61489C1.04841 4.28685 0.107998 6.55377 0.105469 8.91827V24.2067C0.107998 26.5712 1.04841 28.8382 2.72036 30.5101C4.39231 32.1821 6.65924 33.1225 9.02374 33.125H24.3122C26.6767 33.1225 28.9436 32.1821 30.6156 30.5101C32.2875 28.8382 33.2279 26.5712 33.2305 24.2067V8.91827C33.2279 6.55377 32.2875 4.28685 30.6156 2.61489C28.9436 0.942942 26.6767 0.00252933 24.3122 0ZM16.668 24.2067C15.1561 24.2067 13.6781 23.7584 12.4211 22.9184C11.164 22.0785 10.1842 20.8846 9.60562 19.4878C9.02705 18.091 8.87567 16.554 9.17062 15.0712C9.46557 13.5883 10.1936 12.2263 11.2627 11.1572C12.3317 10.0881 13.6938 9.36011 15.1767 9.06515C16.6595 8.7702 18.1965 8.92158 19.5933 9.50015C20.9901 10.0787 22.184 11.0585 23.0239 12.3156C23.8639 13.5727 24.3122 15.0506 24.3122 16.5625C24.3101 18.5892 23.504 20.5323 22.0709 21.9655C20.6378 23.3986 18.6947 24.2046 16.668 24.2067ZM26.2233 8.91827C25.8453 8.91827 25.4758 8.80619 25.1615 8.5962C24.8473 8.38621 24.6023 8.08774 24.4577 7.73854C24.313 7.38934 24.2752 7.00509 24.3489 6.63438C24.4227 6.26367 24.6047 5.92316 24.8719 5.65589C25.1392 5.38862 25.4797 5.20661 25.8504 5.13287C26.2211 5.05914 26.6054 5.09698 26.9546 5.24162C27.3038 5.38627 27.6023 5.63121 27.8122 5.94548C28.0222 6.25976 28.1343 6.62924 28.1343 7.00721C28.1343 7.51406 27.933 8.00014 27.5746 8.35853C27.2162 8.71693 26.7301 8.91827 26.2233 8.91827ZM21.7641 16.5625C21.7641 17.5704 21.4652 18.5557 20.9053 19.3938C20.3453 20.2318 19.5494 20.885 18.6182 21.2707C17.687 21.6564 16.6623 21.7574 15.6738 21.5607C14.6852 21.3641 13.7772 20.8787 13.0644 20.166C12.3517 19.4533 11.8664 18.5453 11.6697 17.5567C11.4731 16.5682 11.574 15.5435 11.9597 14.6123C12.3455 13.6811 12.9986 12.8852 13.8367 12.3252C14.6748 11.7652 15.66 11.4663 16.668 11.4663C18.0196 11.4663 19.3158 12.0033 20.2715 12.959C21.2272 13.9147 21.7641 15.2109 21.7641 16.5625Z" fill="url(#paint0_linear_133_16534)"/>
<path d="M24.3122 0H9.02374C6.65924 0.00252933 4.39231 0.942942 2.72036 2.61489C1.04841 4.28685 0.107998 6.55377 0.105469 8.91827V24.2067C0.107998 26.5712 1.04841 28.8382 2.72036 30.5101C4.39231 32.1821 6.65924 33.1225 9.02374 33.125H24.3122C26.6767 33.1225 28.9436 32.1821 30.6156 30.5101C32.2875 28.8382 33.2279 26.5712 33.2305 24.2067V8.91827C33.2279 6.55377 32.2875 4.28685 30.6156 2.61489C28.9436 0.942942 26.6767 0.00252933 24.3122 0ZM16.668 24.2067C15.1561 24.2067 13.6781 23.7584 12.4211 22.9184C11.164 22.0785 10.1842 20.8846 9.60562 19.4878C9.02705 18.091 8.87567 16.554 9.17062 15.0712C9.46557 13.5883 10.1936 12.2263 11.2627 11.1572C12.3317 10.0881 13.6938 9.36011 15.1767 9.06515C16.6595 8.7702 18.1965 8.92158 19.5933 9.50015C20.9901 10.0787 22.184 11.0585 23.0239 12.3156C23.8639 13.5727 24.3122 15.0506 24.3122 16.5625C24.3101 18.5892 23.504 20.5323 22.0709 21.9655C20.6378 23.3986 18.6947 24.2046 16.668 24.2067ZM26.2233 8.91827C25.8453 8.91827 25.4758 8.80619 25.1615 8.5962C24.8473 8.38621 24.6023 8.08774 24.4577 7.73854C24.313 7.38934 24.2752 7.00509 24.3489 6.63438C24.4227 6.26367 24.6047 5.92316 24.8719 5.65589C25.1392 5.38862 25.4797 5.20661 25.8504 5.13287C26.2211 5.05914 26.6054 5.09698 26.9546 5.24162C27.3038 5.38627 27.6023 5.63121 27.8122 5.94548C28.0222 6.25976 28.1343 6.62924 28.1343 7.00721C28.1343 7.51406 27.933 8.00014 27.5746 8.35853C27.2162 8.71693 26.7301 8.91827 26.2233 8.91827ZM21.7641 16.5625C21.7641 17.5704 21.4652 18.5557 20.9053 19.3938C20.3453 20.2318 19.5494 20.885 18.6182 21.2707C17.687 21.6564 16.6623 21.7574 15.6738 21.5607C14.6852 21.3641 13.7772 20.8787 13.0644 20.166C12.3517 19.4533 11.8664 18.5453 11.6697 17.5567C11.4731 16.5682 11.574 15.5435 11.9597 14.6123C12.3455 13.6811 12.9986 12.8852 13.8367 12.3252C14.6748 11.7652 15.66 11.4663 16.668 11.4663C18.0196 11.4663 19.3158 12.0033 20.2715 12.959C21.2272 13.9147 21.7641 15.2109 21.7641 16.5625Z" fill="url(#paint1_linear_133_16534)" style="mix-blend-mode:overlay"/>
<path d="M24.3122 0H9.02374C6.65924 0.00252933 4.39231 0.942942 2.72036 2.61489C1.04841 4.28685 0.107998 6.55377 0.105469 8.91827V24.2067C0.107998 26.5712 1.04841 28.8382 2.72036 30.5101C4.39231 32.1821 6.65924 33.1225 9.02374 33.125H24.3122C26.6767 33.1225 28.9436 32.1821 30.6156 30.5101C32.2875 28.8382 33.2279 26.5712 33.2305 24.2067V8.91827C33.2279 6.55377 32.2875 4.28685 30.6156 2.61489C28.9436 0.942942 26.6767 0.00252933 24.3122 0ZM16.668 24.2067C15.1561 24.2067 13.6781 23.7584 12.4211 22.9184C11.164 22.0785 10.1842 20.8846 9.60562 19.4878C9.02705 18.091 8.87567 16.554 9.17062 15.0712C9.46557 13.5883 10.1936 12.2263 11.2627 11.1572C12.3317 10.0881 13.6938 9.36011 15.1767 9.06515C16.6595 8.7702 18.1965 8.92158 19.5933 9.50015C20.9901 10.0787 22.184 11.0585 23.0239 12.3156C23.8639 13.5727 24.3122 15.0506 24.3122 16.5625C24.3101 18.5892 23.504 20.5323 22.0709 21.9655C20.6378 23.3986 18.6947 24.2046 16.668 24.2067ZM26.2233 8.91827C25.8453 8.91827 25.4758 8.80619 25.1615 8.5962C24.8473 8.38621 24.6023 8.08774 24.4577 7.73854C24.313 7.38934 24.2752 7.00509 24.3489 6.63438C24.4227 6.26367 24.6047 5.92316 24.8719 5.65589C25.1392 5.38862 25.4797 5.20661 25.8504 5.13287C26.2211 5.05914 26.6054 5.09698 26.9546 5.24162C27.3038 5.38627 27.6023 5.63121 27.8122 5.94548C28.0222 6.25976 28.1343 6.62924 28.1343 7.00721C28.1343 7.51406 27.933 8.00014 27.5746 8.35853C27.2162 8.71693 26.7301 8.91827 26.2233 8.91827ZM21.7641 16.5625C21.7641 17.5704 21.4652 18.5557 20.9053 19.3938C20.3453 20.2318 19.5494 20.885 18.6182 21.2707C17.687 21.6564 16.6623 21.7574 15.6738 21.5607C14.6852 21.3641 13.7772 20.8787 13.0644 20.166C12.3517 19.4533 11.8664 18.5453 11.6697 17.5567C11.4731 16.5682 11.574 15.5435 11.9597 14.6123C12.3455 13.6811 12.9986 12.8852 13.8367 12.3252C14.6748 11.7652 15.66 11.4663 16.668 11.4663C18.0196 11.4663 19.3158 12.0033 20.2715 12.959C21.2272 13.9147 21.7641 15.2109 21.7641 16.5625Z" fill="#C1A875" style="mix-blend-mode:color"/>
<defs>
<linearGradient id="paint0_linear_133_16534" x1="-20.2791" y1="27.4408" x2="59.5229" y2="-4.35772" gradientUnits="userSpaceOnUse">
<stop stop-color="#576265"/>
<stop offset="0.172016" stop-color="#9EA1A1"/>
<stop offset="0.45741" stop-color="#848B8A"/>
<stop offset="0.553567" stop-color="#576265"/>
<stop offset="0.823421" stop-color="#576265"/>
<stop offset="0.925155" stop-color="#757A7B"/>
<stop offset="1" stop-color="#576265"/>
</linearGradient>
<linearGradient id="paint1_linear_133_16534" x1="13.3288" y1="16.5625" x2="6.72176" y2="-0.67993" gradientUnits="userSpaceOnUse">
<stop stop-color="white" stop-opacity="0"/>
<stop offset="1" stop-color="white"/>
</linearGradient>
</defs>
</svg>
