<svg width="35" height="43" viewBox="0 0 35 43" fill="none" xmlns="http://www.w3.org/2000/svg">
<path d="M17.6029 21.5C18.7461 21.5 19.725 21.0927 20.5398 20.2779C21.3545 19.4632 21.7612 18.4849 21.7598 17.3432C21.7598 16.2001 21.3524 15.2211 20.5377 14.4064C19.7229 13.5916 18.7447 13.185 17.6029 13.1863C16.4598 13.1863 15.4809 13.5937 14.6661 14.4085C13.8514 15.2232 13.4447 16.2014 13.4461 17.3432C13.4461 18.4863 13.8535 19.4652 14.6682 20.28C15.483 21.0947 16.4612 21.5014 17.6029 21.5ZM17.6029 42.2842C12.0259 37.5385 7.8607 33.1309 5.10748 29.0613C2.35427 24.9918 0.976972 21.2243 0.975586 17.7589C0.975586 12.5628 2.64733 8.4233 5.99081 5.3403C9.3343 2.25732 13.205 0.71582 17.6029 0.71582C22.0023 0.71582 25.8737 2.25732 29.2172 5.3403C32.5606 8.4233 34.2317 12.5628 34.2303 17.7589C34.2303 21.2229 32.853 24.9904 30.0984 29.0613C27.3438 33.1322 23.1787 37.5399 17.6029 42.2842Z" fill="url(#paint0_linear_133_16528)"/>
<path d="M17.6029 21.5C18.7461 21.5 19.725 21.0927 20.5398 20.2779C21.3545 19.4632 21.7612 18.4849 21.7598 17.3432C21.7598 16.2001 21.3524 15.2211 20.5377 14.4064C19.7229 13.5916 18.7447 13.185 17.6029 13.1863C16.4598 13.1863 15.4809 13.5937 14.6661 14.4085C13.8514 15.2232 13.4447 16.2014 13.4461 17.3432C13.4461 18.4863 13.8535 19.4652 14.6682 20.28C15.483 21.0947 16.4612 21.5014 17.6029 21.5ZM17.6029 42.2842C12.0259 37.5385 7.8607 33.1309 5.10748 29.0613C2.35427 24.9918 0.976972 21.2243 0.975586 17.7589C0.975586 12.5628 2.64733 8.4233 5.99081 5.3403C9.3343 2.25732 13.205 0.71582 17.6029 0.71582C22.0023 0.71582 25.8737 2.25732 29.2172 5.3403C32.5606 8.4233 34.2317 12.5628 34.2303 17.7589C34.2303 21.2229 32.853 24.9904 30.0984 29.0613C27.3438 33.1322 23.1787 37.5399 17.6029 42.2842Z" fill="url(#paint1_linear_133_16528)" style="mix-blend-mode:overlay"/>
<path d="M17.6029 21.5C18.7461 21.5 19.725 21.0927 20.5398 20.2779C21.3545 19.4632 21.7612 18.4849 21.7598 17.3432C21.7598 16.2001 21.3524 15.2211 20.5377 14.4064C19.7229 13.5916 18.7447 13.185 17.6029 13.1863C16.4598 13.1863 15.4809 13.5937 14.6661 14.4085C13.8514 15.2232 13.4447 16.2014 13.4461 17.3432C13.4461 18.4863 13.8535 19.4652 14.6682 20.28C15.483 21.0947 16.4612 21.5014 17.6029 21.5ZM17.6029 42.2842C12.0259 37.5385 7.8607 33.1309 5.10748 29.0613C2.35427 24.9918 0.976972 21.2243 0.975586 17.7589C0.975586 12.5628 2.64733 8.4233 5.99081 5.3403C9.3343 2.25732 13.205 0.71582 17.6029 0.71582C22.0023 0.71582 25.8737 2.25732 29.2172 5.3403C32.5606 8.4233 34.2317 12.5628 34.2303 17.7589C34.2303 21.2229 32.853 24.9904 30.0984 29.0613C27.3438 33.1322 23.1787 37.5399 17.6029 42.2842Z" fill="#C1A875" style="mix-blend-mode:color"/>
<defs>
<linearGradient id="paint0_linear_133_16528" x1="2.90402" y1="25.9995" x2="55.0561" y2="3.93394" gradientUnits="userSpaceOnUse">
<stop stop-color="#576265"/>
<stop offset="0.172016" stop-color="#9EA1A1"/>
<stop offset="0.45741" stop-color="#848B8A"/>
<stop offset="0.553567" stop-color="#576265"/>
<stop offset="0.823421" stop-color="#576265"/>
<stop offset="0.925155" stop-color="#757A7B"/>
<stop offset="1" stop-color="#576265"/>
</linearGradient>
<linearGradient id="paint1_linear_133_16528" x1="23.474" y1="37.5702" x2="3.62437" y2="1.94844" gradientUnits="userSpaceOnUse">
<stop stop-color="white" stop-opacity="0"/>
<stop offset="1" stop-color="white"/>
</linearGradient>
</defs>
</svg>
