<svg width="35" height="34" viewBox="0 0 35 34" fill="none" xmlns="http://www.w3.org/2000/svg">
<path d="M17.4902 0C26.6668 0 34.1054 7.43862 34.1054 16.6152C34.1054 25.7918 26.6668 33.2304 17.4902 33.2304C14.5539 33.2351 11.6693 32.4581 9.13277 30.979L0.881669 33.2304L3.12804 24.976C1.64778 22.4386 0.870118 19.5528 0.875023 16.6152C0.875023 7.43862 8.31364 0 17.4902 0ZM11.8278 8.80605L11.4955 8.81934C11.2803 8.83244 11.0701 8.88896 10.8774 8.98549C10.6971 9.08756 10.5326 9.21516 10.3889 9.36432C10.1895 9.55207 10.0765 9.7149 9.95522 9.87275C9.34066 10.6718 9.00977 11.6528 9.0148 12.6608C9.01813 13.4749 9.2308 14.2675 9.56311 15.0085C10.2427 16.5072 11.3609 18.0939 12.8363 19.5644C13.1919 19.9183 13.5408 20.2739 13.9163 20.6045C15.7496 22.2186 17.9343 23.3826 20.2965 24.004L21.2403 24.1485C21.5476 24.1651 21.855 24.1419 22.1641 24.1269C22.648 24.1019 23.1205 23.9709 23.5481 23.7431C23.7657 23.631 23.978 23.5091 24.1845 23.3776C24.1845 23.3776 24.2559 23.331 24.3922 23.228C24.6165 23.0619 24.7544 22.9439 24.9405 22.7495C25.0784 22.6066 25.198 22.4388 25.2894 22.2477C25.419 21.9769 25.5486 21.4602 25.6017 21.0298C25.6416 20.7009 25.63 20.5214 25.625 20.4101C25.6184 20.2323 25.4705 20.0479 25.3093 19.9698L24.3423 19.5361C24.3423 19.5361 22.8968 18.9064 22.0129 18.5043C21.9204 18.4639 21.8213 18.4409 21.7204 18.4362C21.6068 18.4245 21.4919 18.4373 21.3836 18.4737C21.2752 18.5101 21.176 18.5693 21.0924 18.6472C21.0841 18.6439 20.9728 18.7386 19.7715 20.1941C19.7025 20.2867 19.6076 20.3568 19.4987 20.3952C19.3898 20.4337 19.2719 20.4389 19.16 20.4101C19.0518 20.3811 18.9458 20.3444 18.8427 20.3004C18.6367 20.214 18.5652 20.1808 18.424 20.121C17.4704 19.7049 16.5875 19.1426 15.8071 18.4545C15.5977 18.2717 15.4033 18.0723 15.204 17.8796C14.5503 17.2536 13.9806 16.5454 13.5092 15.7728L13.4112 15.615C13.3408 15.5089 13.2838 15.3945 13.2417 15.2743C13.1786 15.0301 13.3431 14.834 13.3431 14.834C13.3431 14.834 13.7468 14.3921 13.9346 14.1528C14.1173 13.9202 14.2718 13.6942 14.3715 13.5331C14.5676 13.2174 14.6291 12.8934 14.5261 12.6425C14.0608 11.506 13.579 10.3745 13.0839 9.25134C12.9858 9.02869 12.6951 8.86919 12.4309 8.83762C12.3412 8.82765 12.2514 8.81768 12.1617 8.81104C11.9386 8.79995 11.715 8.80217 11.4921 8.81768L11.8261 8.80439L11.8278 8.80605Z" fill="url(#paint0_linear_133_16533)"/>
<path d="M17.4902 0C26.6668 0 34.1054 7.43862 34.1054 16.6152C34.1054 25.7918 26.6668 33.2304 17.4902 33.2304C14.5539 33.2351 11.6693 32.4581 9.13277 30.979L0.881669 33.2304L3.12804 24.976C1.64778 22.4386 0.870118 19.5528 0.875023 16.6152C0.875023 7.43862 8.31364 0 17.4902 0ZM11.8278 8.80605L11.4955 8.81934C11.2803 8.83244 11.0701 8.88896 10.8774 8.98549C10.6971 9.08756 10.5326 9.21516 10.3889 9.36432C10.1895 9.55207 10.0765 9.7149 9.95522 9.87275C9.34066 10.6718 9.00977 11.6528 9.0148 12.6608C9.01813 13.4749 9.2308 14.2675 9.56311 15.0085C10.2427 16.5072 11.3609 18.0939 12.8363 19.5644C13.1919 19.9183 13.5408 20.2739 13.9163 20.6045C15.7496 22.2186 17.9343 23.3826 20.2965 24.004L21.2403 24.1485C21.5476 24.1651 21.855 24.1419 22.1641 24.1269C22.648 24.1019 23.1205 23.9709 23.5481 23.7431C23.7657 23.631 23.978 23.5091 24.1845 23.3776C24.1845 23.3776 24.2559 23.331 24.3922 23.228C24.6165 23.0619 24.7544 22.9439 24.9405 22.7495C25.0784 22.6066 25.198 22.4388 25.2894 22.2477C25.419 21.9769 25.5486 21.4602 25.6017 21.0298C25.6416 20.7009 25.63 20.5214 25.625 20.4101C25.6184 20.2323 25.4705 20.0479 25.3093 19.9698L24.3423 19.5361C24.3423 19.5361 22.8968 18.9064 22.0129 18.5043C21.9204 18.4639 21.8213 18.4409 21.7204 18.4362C21.6068 18.4245 21.4919 18.4373 21.3836 18.4737C21.2752 18.5101 21.176 18.5693 21.0924 18.6472C21.0841 18.6439 20.9728 18.7386 19.7715 20.1941C19.7025 20.2867 19.6076 20.3568 19.4987 20.3952C19.3898 20.4337 19.2719 20.4389 19.16 20.4101C19.0518 20.3811 18.9458 20.3444 18.8427 20.3004C18.6367 20.214 18.5652 20.1808 18.424 20.121C17.4704 19.7049 16.5875 19.1426 15.8071 18.4545C15.5977 18.2717 15.4033 18.0723 15.204 17.8796C14.5503 17.2536 13.9806 16.5454 13.5092 15.7728L13.4112 15.615C13.3408 15.5089 13.2838 15.3945 13.2417 15.2743C13.1786 15.0301 13.3431 14.834 13.3431 14.834C13.3431 14.834 13.7468 14.3921 13.9346 14.1528C14.1173 13.9202 14.2718 13.6942 14.3715 13.5331C14.5676 13.2174 14.6291 12.8934 14.5261 12.6425C14.0608 11.506 13.579 10.3745 13.0839 9.25134C12.9858 9.02869 12.6951 8.86919 12.4309 8.83762C12.3412 8.82765 12.2514 8.81768 12.1617 8.81104C11.9386 8.79995 11.715 8.80217 11.4921 8.81768L11.8261 8.80439L11.8278 8.80605Z" fill="url(#paint1_linear_133_16533)" style="mix-blend-mode:overlay"/>
<path d="M17.4902 0C26.6668 0 34.1054 7.43862 34.1054 16.6152C34.1054 25.7918 26.6668 33.2304 17.4902 33.2304C14.5539 33.2351 11.6693 32.4581 9.13277 30.979L0.881669 33.2304L3.12804 24.976C1.64778 22.4386 0.870118 19.5528 0.875023 16.6152C0.875023 7.43862 8.31364 0 17.4902 0ZM11.8278 8.80605L11.4955 8.81934C11.2803 8.83244 11.0701 8.88896 10.8774 8.98549C10.6971 9.08756 10.5326 9.21516 10.3889 9.36432C10.1895 9.55207 10.0765 9.7149 9.95522 9.87275C9.34066 10.6718 9.00977 11.6528 9.0148 12.6608C9.01813 13.4749 9.2308 14.2675 9.56311 15.0085C10.2427 16.5072 11.3609 18.0939 12.8363 19.5644C13.1919 19.9183 13.5408 20.2739 13.9163 20.6045C15.7496 22.2186 17.9343 23.3826 20.2965 24.004L21.2403 24.1485C21.5476 24.1651 21.855 24.1419 22.1641 24.1269C22.648 24.1019 23.1205 23.9709 23.5481 23.7431C23.7657 23.631 23.978 23.5091 24.1845 23.3776C24.1845 23.3776 24.2559 23.331 24.3922 23.228C24.6165 23.0619 24.7544 22.9439 24.9405 22.7495C25.0784 22.6066 25.198 22.4388 25.2894 22.2477C25.419 21.9769 25.5486 21.4602 25.6017 21.0298C25.6416 20.7009 25.63 20.5214 25.625 20.4101C25.6184 20.2323 25.4705 20.0479 25.3093 19.9698L24.3423 19.5361C24.3423 19.5361 22.8968 18.9064 22.0129 18.5043C21.9204 18.4639 21.8213 18.4409 21.7204 18.4362C21.6068 18.4245 21.4919 18.4373 21.3836 18.4737C21.2752 18.5101 21.176 18.5693 21.0924 18.6472C21.0841 18.6439 20.9728 18.7386 19.7715 20.1941C19.7025 20.2867 19.6076 20.3568 19.4987 20.3952C19.3898 20.4337 19.2719 20.4389 19.16 20.4101C19.0518 20.3811 18.9458 20.3444 18.8427 20.3004C18.6367 20.214 18.5652 20.1808 18.424 20.121C17.4704 19.7049 16.5875 19.1426 15.8071 18.4545C15.5977 18.2717 15.4033 18.0723 15.204 17.8796C14.5503 17.2536 13.9806 16.5454 13.5092 15.7728L13.4112 15.615C13.3408 15.5089 13.2838 15.3945 13.2417 15.2743C13.1786 15.0301 13.3431 14.834 13.3431 14.834C13.3431 14.834 13.7468 14.3921 13.9346 14.1528C14.1173 13.9202 14.2718 13.6942 14.3715 13.5331C14.5676 13.2174 14.6291 12.8934 14.5261 12.6425C14.0608 11.506 13.579 10.3745 13.0839 9.25134C12.9858 9.02869 12.6951 8.86919 12.4309 8.83762C12.3412 8.82765 12.2514 8.81768 12.1617 8.81104C11.9386 8.79995 11.715 8.80217 11.4921 8.81768L11.8261 8.80439L11.8278 8.80605Z" fill="#C1A875" style="mix-blend-mode:color"/>
<defs>
<linearGradient id="paint0_linear_133_16533" x1="-9.125" y1="33" x2="50.8311" y2="4.726" gradientUnits="userSpaceOnUse">
<stop stop-color="#576265"/>
<stop offset="0.172016" stop-color="#9EA1A1"/>
<stop offset="0.45741" stop-color="#848B8A"/>
<stop offset="0.553567" stop-color="#576265"/>
<stop offset="0.823421" stop-color="#576265"/>
<stop offset="0.925155" stop-color="#757A7B"/>
<stop offset="1" stop-color="#576265"/>
</linearGradient>
<linearGradient id="paint1_linear_133_16533" x1="17.875" y1="28.5" x2="8.76173" y2="-0.937851" gradientUnits="userSpaceOnUse">
<stop stop-color="white" stop-opacity="0"/>
<stop offset="1" stop-color="white"/>
</linearGradient>
</defs>
</svg>
